/* XPM */
static char *bed6e0d21f664bd7cac433793b0b9d23o6ntozQwzOSfHk38[] = {
/* columns rows colors chars-per-pixel */
"64 64 68 1 ",
"  c black",
". c #939393",
"X c #989897",
"o c #9B9B9B",
"O c #A09F9F",
"+ c #A1A19F",
"@ c #A3A3A2",
"# c #A8A7A6",
"$ c #A9A9A6",
"% c #ACACAB",
"& c #B0AFAD",
"* c #B1B1AF",
"= c #BCBCAD",
"- c #B4B4B2",
"; c #B8B7B5",
": c #B9B9B6",
"> c #BCBCBA",
", c #C0BFBC",
"< c #C7C5B7",
"1 c #C8C7B7",
"2 c #C2C1BE",
"3 c #D4CDBC",
"4 c #C5C5C3",
"5 c #C9C8C5",
"6 c #CCCAC5",
"7 c #CECDC7",
"8 c #CBCAC8",
"9 c #CCCBC9",
"0 c #CDCDCB",
"q c #CECDCC",
"w c #D1CFCD",
"e c #D4D2CB",
"r c #D3D2CD",
"t c #D1D1D0",
"y c #D4D2D0",
"u c #D5D4D3",
"i c #D7D6D5",
"p c #D9D6D2",
"a c #D8D7D5",
"s c #DDDCD2",
"d c #D9D9D6",
"f c #DADAD8",
"g c #DCDAD8",
"h c #DFDDD9",
"j c #DDDCDA",
"k c #DFDFDD",
"l c #E1DDD7",
"z c #E0E0D7",
"x c #E3E3DF",
"c c #E6E5DD",
"v c #E3E3E0",
"b c #E5E4E3",
"n c #E6E6E5",
"m c #E8E7E5",
"M c #E8E8E6",
"N c #EBEAE9",
"B c #ECEBE8",
"V c #EBECEA",
"C c #ECECE9",
"Z c #EEEEEC",
"A c #F0EFEB",
"S c #F0EFEC",
"D c #F1F1ED",
"F c #F1F0EF",
"G c #F3F3F1",
"H c #F4F4F1",
"J c #F7F6F5",
"K c #FAFAF9",
/* pixels */
"                                                        %       ",
"                                                   ..           ",
" .                                                              ",
"                                                                ",
"                                                                ",
"                                                                ",
"          @                       @@   ..          o            ",
"                                                                ",
"              XX                                      X         ",
"             2@         oo                                      ",
"                                 o..      o                     ",
"          #           o                       o               . ",
"                               4,o.@%                           ",
"               %  *@oo+@,                :@     04              ",
"          @      %%@@@oo@ -%>%;@X+5>@%;@@o@@ %      @           ",
"                 w4,%@O@ %%#%%%o..@;5>;-&%>59  4               #",
"               -8    4  5>>2:2%oX.o%q79yd55gf94tj 2             ",
"              @%;qZJG CMbxxM>%@o+@o#:4uvNxqjj5jCq5 k            ",
"            +@@->9ZKFbdBSMnj4ooo@%-*@*0jnMvVmvFFurA             ",
"      @    o    cHHnnd4dCHf>%oo2%;2%@28q4tvHfkij00dx            ",
"      @    @*>;  SN842> 8q>@XXoo%e-@:>44>4a8>>%%->6t>           ",
"               %4f4--@:2@%@@oo.Xo@@@%4x>@ ;;%%%+-:@%@2          ",
"         o-@@o@o@2-%*@@+oooooo....oo%-7-oXo@%>*ooo@@@;          ",
"         ooo@ooXo:%*@#o..Xoooo....oo#@oooXo@@:-@XX@o@@        o ",
"         ooo@oo@o@@@oX.X.ooooo....ooooXo%;ooo@@X...ooo        o ",
"       X XXX@-%-2#ooXXXXXooXXooXXXXXooo%@-oXXXoXXXXXX           ",
"         oooo@@*>o...Xooo*@..Xoooo..o;@@ooo....ooooX X @        ",
"       @  @-Xoo@%X...Xoo@oX.Xooooo..X@@oooo....ooo@ # Xo        ",
"        o  %oooo@.X..XoooX..o@@@oo...XXoooX....oo* -o .X        ",
"          o+o;@oo.X..Xoooo.o-*@@+@....XoooX....oo               ",
"        @ oooXXoo%ooo..Xoo@:24:#+ooooo...X@@ooo..o%%# #X        ",
"        % ooo..o@;@ oXX@oo%>4r0-o.oooo...=>-ooo..o>q% @X.       ",
"        >@ oo..o@;#ooo.oXo@-%>>@X.oooo..oo@@@oo..o%0- oX.       ",
"     o  @o oo.@@*:@o@oXo*@@@##%@o.oooo..oo oooo.ooo@ @o+.       ",
"        X. ..o@->%@o.o#%c2oo-o-%oo....Xoooo.XXX%%@%o ..Xo       ",
"         . ..o@-4>%@Xoo@>:@.Xo*-@o....Xoooo.X.o0#%r@ ..Xo       ",
"     o  X  ..oo@;%*%@@@ooo...ox j@X...Xoo@o...X%--:o ..X        ",
"     o  X  ..ooo@o>444-@oX..X%Ft%%4o..Xoo@o.o.X@%%% #..X        ",
"     X  X XXXXXXXo%---%@oXXo#-;2*;2oXXXXX@oo ooo;%- ,oXX        ",
"        X ooo....@@@ooX.X+oo*%@@@@@oooX....o ooo@%5 s@oX     o  ",
"        % @@o....oo@oX...#@@&%XX%%@ooo.....oo#oo2,r -ooX     @  ",
"    X    -@:o....oooo....X@1%-oo%>%@@o.....ooooo%*z %ooX        ",
"    o    @ooo....XXXoX ..X@%@:o@-e:@<@.....XXXoXo#: @oXX        ",
"    o    X...oooo..XoooooXX@Xo%@%;@X..XoooX.X.Xo@@% o..         ",
"    o   oX...oo o..o@ooooX...X@oo#XX.XooooX.+..o%oo.   X        ",
"        oo#X.oo o...XooooX..+o@%@@Xo.oooooo....oooo.            ",
"         @o..oooo....XoooX..5@@44#....Xooo%$...oooo ...X        ",
"         %ooo....oooo.....oo@o%pr:4%ooX...Xoooo.... ooo         ",
"         @@@oo...oooo.....oooo@4>qF;ooX..XXoo+o....o oo         ",
"         @@oo....oooo....Xooooo@%:2%ooX.+oXoooo....o o X       o",
"         %Oo@o.XXoooo.....ooo@oo@o@@ooX.% oOooo....oo  o        ",
"        o X.o @@oX...XoooX..X3oOooXoX.Xoo+@o...ooo    >@        ",
"        X. ..  #&o...Xoooo....o%oo....Xo@;;OXooooo @            ",
"         .. .  %%X...Xoo$o..X.oo o....Xoo>l#ooX@@ *  o    :     ",
"         ... o @#X...Xoooo....oooo....Xoo@@X...oo   o           ",
"          XXX  Xo%@XXX@oooXXXXXX..XXXXX   XXXXXXX               ",
"           %o.  o>p@oooo Xoooo....oo                            ",
"       .     @X o%>ooo>   oooo.X..  ooX      oo                 ",
"            @ X   @ooo#   oooo&,                      #         ",
"        X     X %o  o.  X ooo%    o          o                  ",
"                                                                ",
"                                                                ",
"          o                                             o       ",
"             o  %                          ..      .          . "
};
