/* XPM */
static char *result[] = {
/* columns rows colors chars-per-pixel */
"64 64 99 2 ",
"   c #FF0800",
".  c #FE1400",
"X  c #FF1D00",
"o  c #FF2400",
"O  c #FF2C00",
"+  c #FF2F0A",
"@  c #F63501",
"#  c #FF3400",
"$  c #FF3C01",
"%  c #FE330A",
"&  c #FD3A0A",
"*  c #DD4A00",
"=  c #FF4401",
"-  c #FF4C01",
";  c #FE420A",
":  c #F14F0C",
">  c #FF4B0C",
",  c #E35201",
"<  c #ED5102",
"1  c #EC5C01",
"2  c #FF5400",
"3  c #F05A03",
"4  c #FF5C01",
"5  c #FF530A",
"6  c #FF5B0B",
"7  c #FD4411",
"8  c #FD4A12",
"9  c #FC5510",
"0  c #FD5C12",
"q  c #FC5318",
"w  c #FE5C18",
"e  c #ED6102",
"r  c #FF6300",
"t  c #FF6B01",
"y  c #FF640A",
"u  c #FF6C0A",
"i  c #F67502",
"p  c #FF7401",
"a  c #FF7B01",
"s  c #FF740A",
"d  c #FF7B0B",
"f  c #FF6411",
"g  c #FF6F10",
"h  c #FF7612",
"j  c #FF7D11",
"k  c #FF6621",
"l  c #FF8300",
"z  c #FF8C01",
"x  c #FF840B",
"c  c #FF8B0B",
"v  c #FF9300",
"b  c #FF9C01",
"n  c #FF930A",
"m  c #FF9A0B",
"M  c #FF8610",
"N  c #FF8F10",
"B  c #FF9114",
"V  c #FF9C10",
"C  c #FF991C",
"Z  c #FFA301",
"A  c #FFAC00",
"S  c #FFA40B",
"D  c #FFAB0A",
"F  c #FFB401",
"G  c #FFBB01",
"H  c #FFB40C",
"J  c #FFB90B",
"K  c #FFA211",
"L  c #FFAD13",
"P  c #FFB115",
"I  c #FFBB1D",
"U  c #FF9734",
"Y  c #FFAD22",
"T  c #FFA12A",
"R  c #FFC300",
"E  c #FFCB01",
"W  c #FFC30E",
"Q  c #FFD301",
"!  c #FFDB01",
"~  c #FFD509",
"^  c #FFCF1C",
"/  c #FFD31C",
"(  c #FFDA1A",
")  c #FFE302",
"_  c #FFEB02",
"`  c #FFE30E",
"'  c #FFEA0E",
"]  c #FFF401",
"[  c #FFFB02",
"{  c #FFF60D",
"}  c #FFC22B",
"|  c #FFC532",
" . c #FFCA33",
".. c #FFB341",
"X. c #FFCA5F",
"o. c #FFEC5E",
"O. c #FFD475",
"+. c #FFE5B4",
"@. c None",
/* pixels */
"@.@.@.@.@.@.@.@.@.@.@.@.@.@.@.@.@.@.@.@.@.@.@.@.@.@.@.@.@.@.@.@.@.@.@.@.@.@.@.@.@.@.@.@.@.@.@.@.@.@.@.@.@.@.@.@.@.@.@.@.@.@.@.@.",
"@.@.@.@.@.@.@.@.@.@.@.@.@.@.@.@.@.@.@.@.@.@.@.@.@.@.@.@.@.@.@.@.> @.> = @.f r 0 u @.@.@.@.@.@.@.@.@.@.@.@.@.@.@.@.@.@.@.@.@.@.@.",
"@.@.@.@.@.@.@.@.@.@.@.@.@.@.@.@.@.@.@.@.@.@.@.@.1 - & $ O $ $ # = - = $ # o O o O # $ @.@.@.@.@.@.@.@.@.@.@.@.@.@.@.@.@.@.@.@.@.",
"@.@.@.@.@.@.@.@.@.@.@.@.@.@.@.@.@.@.@.@.@.@.@.& # = - $ # $ $ - = # # 2 # # 2 = 4 4 # 2 ; k @.@.@.@.@.@.@.@.@.@.@.@.@.@.@.@.@.@.",
"@.@.@.@.@.@.@.@.@.@.@.@.@.@.@.@., @.8 O # 4 # = = = - = $ - 2 a - - 2 4 $ p r r - z r 4 4 2 s w @.@.@.@.@.@.@.@.@.@.@.@.@.@.@.@.",
"@.@.@.@.@.@.@.@.@.@.@.@.@.@.@.e 3 = - # - 2 t - t r 2 2 a # r p a t z - Z p 2 a t z t t r t t p 2 @.@.@.@.@.@.@.@.@.@.@.@.@.@.@.",
"@.@.@.@.@.@.@.@.@.@.@.@.@.@.@.5 - 4 t 4 4 r 2 t r a l 2 2 2 - 2 2 z t z l z l z p c s z l p t r - & 5 @.@.@.@.@.@.@.@.@.@.@.@.@.",
"@.@.@.@.@.@.@.@.@.@.@.@.@.5 - 2 2 a l r r r - - t - r 4 a z 2 t = = $ 2 r - v r a b c n n t t p p r 2 > @.@.@.@.@.@.@.@.@.@.@.@.",
"@.@.@.@.@.@.@.@.@.@.@.1 ; - = = - - a 2 4 4 v # & & $ v a t c = r 4 a 2 a t t p p a u v n c c a a a a 2 @.@.@.@.@.@.@.@.@.@.@.@.",
"@.@.@.@.@.@.@.@.@.@.1 - $ t 2 a Z 4 4 $ 4 4 4 y Z - - > a a $ b v - 4 2 2 p - 2 t 2 2 l a z t l l a a 4 t 5 @.@.@.@.@.@.@.@.@.@.",
"@.@.@.@.@.@.@.@.@.@.$ 5 r $ p p l t t p r 4 r u Z F t r 4 u z r 4 t = t r 2 t t 2 4 a l l r r v - z 2 z # t y @.@.@.@.@.@.@.@.@.",
"@.@.@.@.@.@.@.q @.; # - = p t z t 4 E p l l u z G _ s 5 y 6 S r - z m z 4 a a t l - 4 = p 2 4 a t p l t r # 2 - @.@.@.@.@.@.@.@.",
"@.@.@.@.@.@.i @.8 = 2 r l p r 4 A p 4 2 # z I v G F 4 Z d d > > y z ! a l l t t a F t 4 t r 2 t z = d p t p r - @.@.@.@.@.@.@.@.",
"@.@.@.@.@.@.9 8 4 = = t $ t t a A Z z a l S n n R d G F m D # z m = l m v r - 2 p A a p z 4 4 4 2 l r v z # t 2 6 @., @.@.@.@.@.",
"@.@.@.@.@.0 @.= 2 = - $ 2 l a v A Z b m c m d S Z n n d d y s l a t A r v E A l t Z F z Z l b r a F v - A 2 z a - @.* @.@.@.@.@.",
"@.@.@.@.7 p - r l $ $ t v p A l l b z S Z Z v c m K D ] P m c 5 n p 2 v = z Q t r t p a - r A 2 a t l l l Z r 4 - # * @.@.@.@.@.",
"@.@.@.@.% r $ l r 2 - t l A 4 R E 2 c d l d G b m ( F E R A _ E u l 6 s 4 v $ b a 4 $ r a r # O = = b l p l b v = # @ @.@.@.@.@.",
"@.@.@.@.& 2 l v z p z b p Z p G F p z s u u m C d V K D D s A s c d x 4 5 a 4 2 - # O 2 l = - $ $ r Z O l p v l 2 # O @.@.@.@.@.",
"@.@.@.@.O - Z 4 p _ A 2 l b { Z p t E s A Q V N n D b S 5 x M v v Q r y a s 2 4 r = - = v 4 $ z t r = z Z r 4 a a 4 2 O @.@.@.@.",
"@.@.@.= $ t G Z F G b A a R ] E F F a E _ Q D h H m ! D R b u S s _ a 2 A - r A t A a Z 2 p l z r 2 - p l a z t t p = $ @.@.@.@.",
"@.@.@.= = 2 Z E A Z a p E E Q Q z _ Q b ) D b K x E f { E d J L z A D p - t b v O l $ l t E A r r = = t r r z z b t 2 4 % @.@.@.",
"@.@.= z t p v z a z b p A b G F A A F p F N D S B _ H A W F H D B d Q A ) E a F v t o t p p E p t # 2 r r r r r Z ! 2 $ $ @.@.@.",
"@.@.- l I v r p H p l R Z z F a R ] ) _ v c m K E n d x F J m T d Y ' E ! ~ A l t l r r v a r r a 4 a p b r = - v a b p = O @.@.",
"@.@.4 z } A t G F F b a l E G r z b z G A m n s R F c u { ~ G z ) o.Q ] ! ^ E z E a a v Q R F p z r p p A - = F p r l a 4 t @.@.",
"@.y p J +.F l v 4 v z r F l p a l p F ) Z E Q E G m d b l v ] { E R b R G v b Q Z z R F F ) l = # = p b t - o p t a l p $ 4 @.@.",
"@.0 a Z O.R l r r b G b E v p 2 $ z Q E F l l ] Z ~ E c ~ b E Q R A b p E Z p v A l A Z l G v G A a = t - r O a = = p a 2 - ; @.",
"@.& z b A | Z r 2 v E E p ! l = 4 a z b E Z 4 G F b A c A J s _ { ` p D A a t $ n a E R J ^ ! A a O l = a t = = a O l 4 t - @.@.",
"@.4 2 R G F p 4 l p 2 4 G v v b l A A Q A u r R F Z r y u t z l m ] b ..a G r z r F a p P  .R E 4 $ # t - v p t r t b 4 r # @.@.",
"@.- 2 E Z a t 4 E l b Z v Q ! / R Z a p b p p a Z ! t p 2 u p ] b E a F - p 2 l v A z R R A l a G # o - a a r A p = z r p # @.@.",
"@.2 v 2 - v 4 t F l p r t F ) [ [ R A Q Z r v t l a a t # 4 R = - t u _ - # = l p z z v Z z A O 2 4 4 $ 4 4 r = t v - E p O @.@.",
"@.- a 2 t l b p G F E r 2 G E b z l A l p 4 Q v r b l l z - - r O 4 v v A 2 v 0 $ l v Z t - 4 l $ v = # o = v # 4 2 v p 4 = @.@.",
"@.t 4 - - t p 2 b l a 2 t z z G t r Z t # 2 A z a Z a t z - - ; = 4 u 2 G - u _ p p a z O v z 2 # r $ # t t 4 2 - z G = t O 5 @.",
"@.r r p 2 - F a = z 2 Z r - p R l b l a z = $ a t p G v - z a 4 z F l 4 A z b r - a r l l p r r $ = o l t t Z r - t 2 2 2 # t @.",
"@.- = p p p Z p $ = - v a p p Z Z p t r b 4 4 z v t d r 4 A a E v t a z F 4 a b v A & 4 4 a r l - o p - # - t p r a 2 t t 2 ; @.",
"@.$ # - v a 2 4 t 2 l p a r a r 4 p a b t 2 z p b $ v - t p t z p r l t a d t 2 4 # a l = 2 - 4 $ - 4 X 2 4 r O p p - 4 - r - @.",
"@.$ 2 l z a # t 4 = a 2 # A z l a v r # p b 4 2 r = p 4 4 R 4 p a z b = - l 4 a l p = & = 6 2 p t a t $ t p z 4 p - p $ = # @.@.",
"@.@.X $ b F 4 l p - l A - a l = l p - t - r - # # r p 2 2 - G a - l a = - r r z G r A u p c p r a 2 r $ $ O $ 4 o - t $ - $ @.@.",
"@.@.$ = p v t # = - 4 - 2 # r 2 O z - = X =   2 z l r p z r a p l a p - > r z d l ; # z a t u z - a r - O 4 O 4 p = t 2 4 & @.@.",
"@.@.@.# 2 a 4 # O 4 X r r t # t $ 2 . = r = A t r = 4 p p t r 4 a # ; v 6 s v v r y s z & r b a - r 2 z # t p o - v a r $ ; @.@.",
"@.@.@.$ p 2 4 t 2 p - l b a 4 2 $ - = X O o 4 $ t - t 2 t 2 l - = ; l r 6 v 4 s 5 6 S r > p 4 4 2 4 - $ r p p O 4 t r 4 = @.@.@.",
"@.@.@.& $ b 2 4 a a p $ - o - p - = r 4 O o 2 # $ $ r r = a t v 2 4 y 6 d E Z s 5 Z r H u p ; r - & v u 2 4 = - 4 r p $ $ @.@.@.",
"@.@.@.@.- t = - 4 2 - r p = b $ z r r r = o o = = v # v p r t - - > a d A v l c > 5 c R t a v = 2 r r - F - t - t 4 4 O @.@.@.@.",
"@.@.@.@.& = t = 2 t z 2 l z l t t 4 2 2 t a 2 t p O X # 2 4 $ 2 - ; b z z d Z u l > F u ; u 2 p - 2 r t t v v 4 4 l - 4 @.@.@.@.",
"@.@.@.@.@.p - r - 2 p 2 ) ) z Z z v A E r r t t a $ r 4 $ 4 t z 4 u 4 2 - f u u c 5 s Z s b y s & M p z 4 l v r = p - y @.@.@.@.",
"@.@.@.@.@.= O = $ $ p G a A r Z a - r $ 2 r l z v $ 4 o v 2 a a r 2 y y d z > s 6 m u 6 r c x - z 2 p t 2 r p a 2 2 - @.@.@.@.@.",
"@.@.@.@.@.@.o O 4 l 4 A p p t 4 # $ = $ b l # A $ - $ $ 2 a l t t p Z a c d x a u l l u s c s z s p 4 v F t p - - r r @.@.@.@.@.",
"@.@.@.@.@.@.= r o p z z v Z p t r v # z t p 2 2 2 t t t 4 A - 2 G S X.S ' s x d y y 6 d l a b z - p l - p 4 p = = ; a @.@.@.@.@.",
"@.@.@.@.@.@.@.O # $ t A a r Z t z t p r F v # - z t 2 O t - 4 - R U F v } c v s d s u z b z a t r 2 $ p z # O - $ @.a @.@.@.@.@.",
"@.@.@.@.@.@.@.u = - 4 p 4 p b p 2 4 r a a a r = - 2 = 4 4 2 2 l E b T F J d l c l A b v l l b 4 u p t p # r = = - i @.@.@.@.@.@.",
"@.@.@.@.@.@.@.@.= 4 = t - r 2 - p 4 a 2 r p p a 4 # p t 2 G v v 4 v Z F v v z a - Q A v u p 6 p p a = p 4 t O $ @.a @.@.@.@.@.@.",
"@.@.@.@.@.@.@.@.@.# - t 4 p - z l a z a 2 t 4 v 4 - # 2 p p z t l p l v b v Z l - u S t 2 l p $ p 4 = - t # O @.@.@.@.@.@.@.@.@.",
"@.@.@.@.@.@.@.@.@.4 r = a z - $ z $ l a a s p l p t - $ 4 b t 4 l r l b a a p t 4 u r 2 t p a - t a $ 2 2 # @.@.@.@.@.@.@.@.@.@.",
"@.@.@.@.@.@.@.@.@.i p # 4 p l r t v p p t a v a z Z l t p l 2 r p p R b p b z 2 4 4 r - u = = = b r = - 2 @.@.@.@.@.@.@.@.@.@.@.",
"@.@.@.@.@.@.@.@.@.i a i = - t t 4 2 $ l - p G t v Z a a t 4 4 4 v r t l r v ! r 2 u - t p 2 4 2 = r = & @.@.@.@.@.@.@.@.@.@.@.@.",
"@.@.@.@.@.@.@.@.@.@.i i @.2 r t p - = z t r r l E a p = $ 4 r z l r G v p - = 4 - p a a d v 2 = d - # @.@.@.@.@.@.@.@.@.@.@.@.@.",
"@.@.@.@.@.@.@.@.@.@.@.i @.@.- 4 = - a v p F z t Z p Z a = r G Z t z _ A 4 t 4 2 t a z a p B 4 - # 2 @.@.@.@.@.@.@.@.@.@.@.@.@.@.",
"@.@.@.@.@.@.@.@.@.@.@.@.@.@.@.2 - - 4 4 Z Z F t r E b E t 2 a Q E W A Z $ a p b a z t p r - r # 0 @.@.@.@.@.@.@.@.@.@.@.@.@.@.@.",
"@.@.@.@.@.@.@.@.@.@.@.@.@.@.@.@.> - 2 r p t l v - G E F A l F r p v G z G E Z b t 4 t 2 - - ; : @.@.@.@.@.@.@.@.@.@.@.@.@.@.@.@.",
"@.@.@.@.@.@.@.@.@.@.@.@.@.@.@.@.@.f - - = 4 r a r l t t r v b l p v G r = 4 $ 2 2 t t 2 $ < , @.@.@.@.@.@.@.@.@.@.@.@.@.@.@.@.@.",
"@.@.@.@.@.@.@.@.@.@.@.@.@.@.@.@.@.@.@.6 4 # 2 $ = - 2 4 r 4 4 2 v t 2 a 4 - # O O & = @.@.@.@.@.@.@.@.@.@.@.@.@.@.@.@.@.@.@.@.@.",
"@.@.@.@.@.@.@.@.@.@.@.@.@.@.@.@.@.@.@.@.@.. . . O = - - 2 r - p 2 r 4 4 t $ # 7 @.@.@.@.@.@.@.@.@.@.@.@.@.@.@.@.@.@.@.@.@.@.@.@.",
"@.@.@.@.@.@.@.@.@.@.@.@.@.@.@.@.@.@.@.@.@.@.@.@.@.  . % @.> $ = 4 2 - = & & @.@.@.@.@.@.@.@.@.@.@.@.@.@.@.@.@.@.@.@.@.@.@.@.@.@.",
"@.@.@.@.@.@.@.@.@.@.@.@.@.@.@.@.@.@.@.@.@.@.@.@.@.@.@.@.@.@.@.@.@.@.@.@.@.@.@.@.@.@.@.@.@.@.@.@.@.@.@.@.@.@.@.@.@.@.@.@.@.@.@.@.",
"@.@.@.@.@.@.@.@.@.@.@.@.@.@.@.@.@.@.@.@.@.@.@.@.@.@.@.@.@.@.@.@.@.@.@.@.@.@.@.@.@.@.@.@.@.@.@.@.@.@.@.@.@.@.@.@.@.@.@.@.@.@.@.@."
};
