/* XPM */
static char *result[] = {
/* columns rows colors chars-per-pixel */
"64 69 222 2 ",
"   c #000000",
".  c #030D04",
"X  c #02060B",
"o  c #01080D",
"O  c #0A0A0A",
"+  c #041605",
"@  c #041905",
"#  c #07150A",
"$  c #010B13",
"%  c #090F15",
"&  c #01121B",
"*  c #091319",
"=  c #131313",
"-  c #1B1B1B",
";  c #062807",
":  c #06360A",
">  c #0D330D",
",  c #0B2814",
"<  c #122B13",
"1  c #172518",
"2  c #133412",
"3  c #17282E",
"4  c #092538",
"5  c #222222",
"6  c #2A2B2D",
"7  c #203124",
"8  c #2D3439",
"9  c #343434",
"0  c #3A3A3A",
"q  c #074308",
"w  c #155715",
"e  c #1C661D",
"r  c #157314",
"t  c #1C512C",
"y  c #28562C",
"u  c #226924",
"i  c #052B43",
"p  c #00314F",
"a  c #003655",
"s  c #223F51",
"d  c #0F405A",
"f  c #186355",
"g  c #256251",
"h  c #00446E",
"j  c #0A4B6E",
"k  c #114362",
"l  c #004470",
"z  c #1E7665",
"x  c #4B4B4B",
"c  c #565656",
"v  c gray36",
"b  c #557B5D",
"n  c #616161",
"m  c #6E6E6E",
"M  c #777777",
"N  c #7B7B7B",
"B  c #278A27",
"V  c #2E9030",
"C  c #29A530",
"Z  c #35A634",
"A  c #32AC35",
"S  c #35AE3B",
"D  c #38AD3D",
"F  c #36B536",
"G  c #38B536",
"H  c #36B43A",
"J  c #3AB53B",
"K  c #29A949",
"L  c #37AD47",
"P  c #30AD4A",
"I  c #34B343",
"U  c #3CB442",
"Y  c #34B24E",
"T  c #3CB34C",
"R  c #2AA65A",
"E  c #36AA57",
"W  c #32AD55",
"Q  c #39AD5C",
"!  c #36B154",
"~  c #37B354",
"^  c #1D9E6B",
"/  c #2BA965",
"(  c #29A669",
")  c #34AD64",
"_  c #3CAF66",
"`  c #3FB269",
"'  c #22A273",
"]  c #25A57D",
"[  c #33A877",
"{  c #47854C",
"}  c #44A545",
"|  c #41B64B",
" . c #44B64A",
".. c #49AE52",
"X. c #42B353",
"o. c #4AB955",
"O. c #44B45B",
"+. c #51B25D",
"@. c #678A72",
"#. c #46B468",
"$. c #55B669",
"%. c #40AB72",
"&. c #47B576",
"*. c #43B27B",
"=. c #54BA7D",
"-. c #68BF72",
";. c #5CC167",
":. c #59C079",
">. c #69C378",
",. c #00588D",
"<. c #196D92",
"1. c #206286",
"2. c #0C73AF",
"3. c #0376B6",
"4. c #0B7DC0",
"5. c #179987",
"6. c #0E9296",
"7. c #189994",
"8. c #1FA082",
"9. c #23A189",
"0. c #39AB89",
"q. c #3AA897",
"w. c #098EA8",
"e. c #0E93AB",
"r. c #1597A8",
"t. c #098EB1",
"y. c #068CBC",
"u. c #1495B9",
"i. c #2795AB",
"p. c #2C9DB6",
"a. c #33A5AF",
"s. c #4BB489",
"d. c #5BB886",
"f. c #45AB97",
"g. c #5ABA96",
"h. c #64BB9D",
"j. c #71B291",
"k. c #47ABA8",
"l. c #53B3A8",
"z. c #43ABBA",
"x. c #4CB2B0",
"c. c #55B2BB",
"v. c #5AB5BB",
"b. c #68BAAF",
"n. c #5BC082",
"m. c #77C68C",
"M. c #65C29C",
"N. c #70C394",
"B. c #75C5AB",
"V. c #7AC5B7",
"C. c #0588C6",
"Z. c #038ACC",
"A. c #0287D3",
"S. c #0288D5",
"D. c #0A8BD6",
"F. c #0289D8",
"G. c #0F8ED9",
"H. c #108CD3",
"J. c #1491D7",
"K. c #1C93DA",
"L. c #2988C1",
"P. c #2399C3",
"I. c #2296DB",
"U. c #299ADD",
"Y. c #329FDE",
"T. c #3AA5C5",
"R. c #3BA4E1",
"E. c #509DCB",
"W. c #4AACCB",
"Q. c #53B3C8",
"!. c #47A8D8",
"~. c #67BAD5",
"^. c #43A7E3",
"/. c #4DAAE3",
"(. c #56AEE3",
"). c #5CB2E4",
"_. c #63B5E5",
"`. c #69B8E7",
"'. c #6DBAE9",
"]. c #73BDE9",
"[. c #78BFE9",
"{. c #6DC1C8",
"}. c #7AC5C4",
"|. c #7AC1E6",
" X c #7DC2E9",
".X c #818181",
"XX c #ACACAC",
"oX c #88CC9D",
"OX c #84D190",
"+X c #8ECFAA",
"@X c #82C8BA",
"#X c #9ACDB7",
"$X c #A3DABD",
"%X c #85C9C4",
"&X c #9FD4C8",
"*X c #8BCDD5",
"=X c #99CCDB",
"-X c #91D0D2",
";X c #A8D8C9",
":X c #A6D8D2",
">X c #B5DCDB",
",X c #BDE2D5",
"<X c #84C5EA",
"1X c #8DC9EC",
"2X c #95CCED",
"3X c #9ECFE8",
"4X c #9AD1E9",
"5X c #98CEF0",
"6X c #9CD0F1",
"7X c #A8CCE3",
"8X c #A7D6E8",
"9X c #B7D9E4",
"0X c #B2DEEC",
"qX c #A5D4F1",
"wX c #AAD6F1",
"eX c #B3DBF2",
"rX c #BBDEF1",
"tX c #BBE2EC",
"yX c #BBE1F3",
"uX c #D0D0D0",
"iX c #CDE9E4",
"pX c #C5E4F6",
/* pixels */
"                                                                                                                                ",
"                                                                                                                                ",
"                                                                                                                                ",
"                                                                                                                                ",
"                                                                                                                                ",
"                                    O O                                                                           =             ",
"                                  O x M                                                                           uX=           ",
"    O                                                               O O                       = X                               ",
"  X M                                                               n v O                     XX9                               ",
"    c                                                                                                                           ",
"                                                                                                                                ",
"                                                                                                                                ",
"                                                                                                                                ",
"                                                                                                                                ",
"                                                                                                                                ",
"                            O 5                                                                                                 ",
"                            6 m                                                                                                 ",
"                              O                       # < < < 7 0 s 8 8 8 5 %                           X O                     ",
"                                                  . @ y } } ..oX>X9X7X7X=Xj.y #                         - 9 O                   ",
"                                              . 5 x { o.J D >.;XrXeXwX3Xb...H e : @                     = 9 O                   ",
"                                            X < @.iX,X-.J  .m.:XrXeX7XV...A J A A e @                                           ",
"                                            1 { -.oX$Xm.o.oX&X:XwXwX@XO.G J O.L C Z e @                                         ",
"                                          5 @.OX;.$.$X+X+XtXrX9XwXqXV.d.X.U =.E Z G J u #                                       ",
"                                        @ b ,X$X$X#XpXtXtXyXrX8X8X-X}.%X=.O.#.L F G G  .e @                                     ",
"            X 6 -                     O y -.>X;X,X,XpXpXrXeXwX%X@XB.d.=...X.U F F G G G J w .                                   ",
"            O x 9                   . 2 V +.oXj.j.j.yXrXrX0XwX@XB.*Xg.T S F F F J G G G G B ;                                   ",
"                                    @ u J H U J A $.&XeXwXwXqX3X4X}.#.H J D S J F G F F G G q .                                 ",
"                                    ; B F F F J J o.N.8XwXqX6X2XV.n.o.U &.[ Q T J G F F G G r @                                 ",
"                                  + e J G G F J T d.@X=XqX5X5X1Xl.P U &.~.v.s.W Y U G J G G G w .                               ",
"                                  > Z F J G F J L d.qX6X5X2X1X<X}.n.d.g.l.c.x.0.q.0.~ J J J J } <                   n O         ",
"                                  2 G G F F G o.=.b.6X2X1X1X<X<X|.{.g.#.` x.W.W.T.a.) / ! W I } <                   .XO         ",
"                                  > F F F F J :.*X2X1X1X<X<X<X[.|.g.| J T &.*.*.0.! F / / 8.' | <                               ",
"                                  > G F F U ;.h.<X1X1X X X X|.|.v.#.F G F G G G ! R H I Y 7.7.Q 2                               ",
"                                  > G U :.M.}.}.<X X X X X'._.`.f.A G G G G G G ! 8./ I W e.t._ <                               ",
"                                  > F o.M.v.|. X X X'.'.`._.).).k.E A S F F G G I ] ' ] 7.Z.S.) <                               ",
"                                  ; V U O.s.].].'.`.`._._.).).(.!.q.R R R P H J F I K 6.S.S.S.[ <                               ",
"                                  . w G J s.~.v.x.c.).).).(././.!.T.p.i.i./ G G F P ^ t.A.F.A.[ 2                               ",
"          X 6                     . ; V I s.Q.&.Y ` k.W.(./.^.R.Y.Y.Y.U.P.( A F H / e.Z.A.A.D.f #                               ",
"          O m                       # g f.f.%.T G J _ z.R.R.R.R.Y.U.I.I.u.( F F F / e.y.Z.S.,.&                                 ",
"          X 0                       O d E.z.Q H G G Y 0.T.Y.Y.Y.U.I.K.K.r.W F F H ' 6.t.Z.3.i X                                 ",
"                                      * 1.!.q.T F F H ~ [ p.I.K.K.J.G.D.5.A A F Y 7.t.C.C.h %                                   ",
"                                        * 1.p.) F F J F ( P.K.J.G.D.S.S.6.K F H R w.A.S.2.4                                     ",
"                                        X i p.[ H J J I 9.J.G.G.D.F.S.S.w.K P R 6.C.A.3.k %                                     ",
"                                          * a z L G J E u.D.F.S.A.F.S.F.y.5.5.w.Z.S.2.a %                         =             ",
"                                        X   o , u U G ( y.S.F.S.A.F.F.S.S.C.C.A.S.3.p $                           N O           ",
"                                                # u ~ 7.Z.F.S.S.F.A.A.S.S.S.Z.H.L.a $                             0 X           ",
"                                                  # t <.D.A.S.S.F.A.F.A.S.S.4.j 3 *                                             ",
"                    5 c                             X 4 h h h l l l l l h h a & X                                               ",
"                    = 9                               X $ $ $ $ $ $ $ $ $ $ X                                                   ",
"                      X                                                                                                         ",
"                                                                                                                                ",
"                                                                                                                                ",
"                                                                                          X .                                   ",
"                                                                                          - v -                                 ",
"                                                                                          O - O                                 ",
"                                                                                                                                ",
"                                                                                                                                ",
"                                  9 M X                                                                                         ",
"                                  O -                             n c                                                           ",
"          0 N                                                     - =                                               XX=         ",
"          O =                                                                                                       -           ",
"                                                                                                                                ",
"                                                                                                                                ",
"                                                                                                                                ",
"                                                                                                                                ",
"                                                                                                                                ",
"                                                                                                                                ",
"                                                                                                                                ",
"                                                                                                                                "
};
