/* XPM */
static char *_a1daf4ecb5446dafecefcbb3e91a937ywKUMNmILmD1Y6qx[] = {
/* columns rows colors chars-per-pixel */
"64 64 2 1 ",
"  c #030000",
". c #040000",
/* pixels */
"..............  . ...  ..........  .................  ..   .....",
" ............... .  .  ..........   ................  ..        ",
"................           ..  .     ....  ........   ..        ",
"................                     ..    .  ...     ..        ",
"............                         ..    .  ...     ..        ",
".....     ..         .                .                         ",
"                     .                                          ",
"            .                  ...     ..                       ",
"                                ..     .                        ",
"...  ..                         ..     ..                       ",
".....  ...                                                      ",
".....  ...  .                          ..                       ",
".  ..  ...                          ...... .   .  ..            ",
".  ..  ....                         ...    ..   ...     .       ",
".  .........                        ...     ..    .     .       ",
".  ..........  ..                   ....    ...   .   ...       ",
".  ....   ...  .     ...            ....    ....  .   ..        ",
".  ....    ..... ..   ...........    ..........                 ",
".  .......      ...      ........    ....   ...                 ",
"   ........                ......    ...    ...                 ",
"   .........        ..     .......  ....    ...  ......       . ",
"   ...........             .......  ....    ...  ....  .     .  ",
".  ...............    ..     .....  .....   ...  ....  .   ..   ",
" .................                  ........  .  ....  ..  ..   ",
" ................                    ....     .. ..... .....    ",
" ................                    ....    ......    ......   ",
" ................               ...................     .....   ",
" ................            ...  ..   ............     .....   ",
" ...............................       ............  ...        ",
" .................................   ..............   ..        ",
" ..................................................   ....      ",
" ......   .........................................   .......   ",
".....    ...............................   .......    ......... ",
"..       .................... ..........   .......    ......... ",
".  .   .................................   ........   .    .  ..",
"  .    .................................   ........   .    .  ..",
" ...   ..................................   .......   .         ",
"..... ...................................   ...........    ..   ",
"..... ......   ..........................   ...........   ...   ",
"..............  .........................   ............   .... ",
"..............   ........................   .......   ......... ",
" ............... ..  ....................   .......   ......... ",
" ................    ...........................................",
" ..................  ...........................................",
"................................................................",
".................................................       ........",
"........................  .......................      .   .....",
".... .............. ....   ........................         ....",
".... ....................  ............................      ...",
"   ....................  ...   .........................  ......",
"   ....................    .    ........................ .......",
".  ....................    ..    ...............................",
"  .....................    ...     .............................",
"  ....................     ....     ...............  ...........",
"   ...................    .......     ..........................",
"     .................   ........     ..........................",
"..   ................. .......... .   ..........................",
"................................ .    ..........................",
"..............................   ..    ......... .. ............",
"..............................   ...   ......... ..  ...........",
"..............................   ...    ........     ...........",
"..............................    ....  .........  .............",
"..............................    ....  ........................",
"...............................   ..      ....................  "
};
