/* XPM */
static char *dcfe0307391a482bd6a2beb914e30c920N6mJFeqBRXp0eki[] = {
/* columns rows colors chars-per-pixel */
"64 64 6 1 ",
"  c black",
". c gray13",
"X c #393737",
"o c #00BAD6",
"O c #00DDFF",
"+ c #91F0FF",
/* pixels */
"                                                                ",
"                                                                ",
"                                                                ",
"                                                                ",
"                                                                ",
"                                                                ",
"                                                                ",
"                                                                ",
"                                                                ",
"                                                                ",
"                                    oooooooooo                  ",
"                                    oooooooooo                  ",
"                                ooooOOOOOOOOOOoooo              ",
"                                ooooOOOOOOOOOOoooo              ",
"                              ooOOOOXXXXXX..XXOOOOoo            ",
"                              ooOOOOXXXXXX..XXOOOOoo            ",
"                            ooOOXXXX..XXXXXX..OOOOOOoo          ",
"                            ooOOXXXX..XXXXXX..OOOOOOoo          ",
"                          ooOOXXXXXXXXXXXXXXXXXXOOOOoo          ",
"                          ooOOXXXXXXXXXXXXXXXXXXOOOOoo          ",
"                        ooOOXXXXXX....XXXX..XXXXXXOOOOoo        ",
"                        ooOOXXXXXX....XXXX..XXXXXXOOOOoo        ",
"                        ooOOXXXXXX..XXXXXX....XXXXOOOOoo        ",
"                        ooOOXXXXXX..XXXXXX....XXXXOOOOoo        ",
"                      ooOOOOXXXX....XXXXXXXXXXXXXXOOOOoo        ",
"                      ooOOOOXXXX....XXXXXXXXXXXXXXOOOOoo        ",
"                    ooOOOO++XXXXXXXXXXXXXXXXXXXXXXXXOOoo        ",
"                    ooOOOO++XXXXXXXXXXXXXXXXXXXXXXXXOOoo        ",
"                    ooOOOO++++XXXXXX....XXXXXX....XXOOoo        ",
"                    ooOOOO++++XXXXXX....XXXXXX....XXOOoo        ",
"                  ooOOOO++++++++XXXX..XXXXXXXXXXXXOOoo          ",
"                  ooOOOO++++++++XXXX..XXXXXXXXXXXXOOoo          ",
"                  ooOOOO++++++++XXXXXXXX....XXXXOOOOoo          ",
"                  ooOOOO++++++++XXXXXXXX....XXXXOOOOoo          ",
"                ooOOOO++++++++++++XXXXXXXXXXXXXXOOoo            ",
"                ooOOOO++++++++++++XXXXXXXXXXXXXXOOoo            ",
"              ooOOOOOO++++++++++++++XXXXXXXXXXOOOOoo            ",
"              ooOOOOOO++++++++++++++XXXXXXXXXXOOOOoo            ",
"              ooOOOO++++++++++++++++++++OOOOOOOOoooo            ",
"              ooOOOO++++++++++++++++++++OOOOOOOOoooo            ",
"              ooOO++++++++++++++++++OOOOOOOOoooo                ",
"              ooOO++++++++++++++++++OOOOOOOOoooo                ",
"            ooOOOO++++++++++++++OOOOOOOOoooo                    ",
"            ooOOOO++++++++++++++OOOOOOOOoooo                    ",
"            ooOO++++++++++++OOOOOOOOOOoo                        ",
"            ooOO++++++++++++OOOOOOOOOOoo                        ",
"          ooOOOO++++++++++OOOOOOOOoooo                          ",
"          ooOOOO++++++++++OOOOOOOOoooo                          ",
"        ooOOOO++++++++OOOOOOOOoooo                              ",
"        ooOOOO++++++++OOOOOOOOoooo                              ",
"        ooOO++++++OOOOOOOOoooo                                  ",
"        ooOO++++++OOOOOOOOoooo                                  ",
"      ooOOOO++OOOOOOOOoooo                                      ",
"      ooOOOO++OOOOOOOOoooo                                      ",
"      ooOOOOOOOOOOOOoo                                          ",
"      ooOOOOOOOOOOOOoo                                          ",
"    ooOOOOOOOOOOoooo                                            ",
"    ooOOOOOOOOOOoooo                                            ",
"    ooOOOOOOoooo                                                ",
"    ooOOOOOOoooo                                                ",
"  ooOOOOoooo                                                    ",
"  ooOOOOoooo                                                    ",
"ooOOOOoo                                                        ",
"ooOOOOoo                                                        "
};
