/* XPM */
static char *_807923b92404468ba570d96c05dfabeHgp2TPy5AAWRoTfC[] = {
/* columns rows colors chars-per-pixel */
"64 64 37 1 ",
"  c None",
". c black",
"X c gray11",
"o c #1D1D1D",
"O c gray12",
"+ c #202020",
"@ c gray13",
"# c #222222",
"$ c #232323",
"% c gray14",
"& c #252525",
"* c gray15",
"= c #272727",
"- c #282828",
"; c gray16",
": c #2A2A2A",
"> c gray17",
", c #2C2C2C",
"< c #2D2D2D",
"1 c gray18",
"2 c #2F2F2F",
"3 c gray19",
"4 c #313131",
"5 c #323232",
"6 c #353535",
"7 c #393939",
"8 c gray24",
"9 c #464646",
"0 c #4B4B4B",
"q c #535353",
"w c gray38",
"e c #63646B",
"r c gray43",
"t c gray55",
"y c #939393",
"u c #C0C2C9",
"i c white",
/* pixels */
"+%%%%%%-%%%%%%%%%%%%%+%%%%%+-%%%--+%%%%%%%%%%%%----%%%--%%%%%%+%",
"%%%%%+%%++%%%%+%%%%%%-%%%%%-,%-%--%%%-%%%%%-%%%%%%--%%+%+-+%++%%",
"-+%-%%%%+%%%--%%%--%-%-%%%%%%%%%+%+-+%+%%%--%%%%,,%%--%%%-%%%%%%",
"-+%%%+%%%%%%%-%%%%%%%+%i%%-%%%%%%-++-%%e%%%%%%%%--u-%%%%-%+-%+%%",
"-+%--%+%%%%%%-%+-%-%-%----%++%%-+%%%%%%%%%%-%%%%+%---%%%%%%%%-%%",
"-%+%%%%i%+%%%-%%%%%%%%-%%-%%+-%%+-%--%%-+%%%%%%%+%-%%%+-%%%%%%+%",
"%%%%+%%%%++%%-%%%%%%%%%%%-%++%-%u+%%-%%%%%%%%%-%%-%%%%%%%e%%%%+-",
"%-%%+%+%%%%%%%+%-e%%%%%%+%+%%%%%%-%%%%%%%%-%--%+%%%%%%%%%%%+-%+%",
"%%+%-++%%%%%%%%%+%---%%%+%%+%%+%%-%%%%%--%%%-%%%%%%%%%%%%-+%-+%%",
"++%%%%-%+%%%-%%%+%%%%%%%%%%+%%%%%%%%%-%%%-%%-i%%+%%%%%%%%%%-%%%-",
"+%+%%--%%++%--%%%%%%+%%%%%%%---%%%%%-%+--%%%%%+++%%%%%%-%%%---%-",
"-%+%-%---%+%-%%%%%%%%%+%u%%%%-%w%+%%%+%%--%%%%+%%%---%%%%%+%-%--",
"%++%%+%-%%%%%%%--%%%%+%%-+%%+%%t%%%-++%i%-%%%%-------%%++%%%-%-%",
"%%%%%%%-%+%%%-%%-%++%%%%-%%%%%%%%-%%%%%%%%++%%-%%%%%%%%%%%-u-%-%",
"%-%4%-+%-%%-%%%%--%%%+%--9-%-+%%%%%-%%%%%%++%%%%%++%%%%%%%-%-%+%",
"--%6%%%%%%--%---%-%%%+%%%0-%-%-+%-%%%%%%%--%%%%%%%%%-%%%%%%%-%+%",
"%%--+%--%%%-%-%%%%%-%+%%%-%%--%+%%%%%--%%-%%++%%%%e%-%-%%%-%%%%%",
"%+%%%%--%%%%%i%+e-%%%%%%-%%++%%+-%-%--%%%%%%%%%%%%%%%-%%%%-%%%%%",
"%%%%%%%-%%%%+%-%%-%%%%%%r7%%%%%+%%%%%%+%%%%%%%+%-%%%%%%%%%%%+%%%",
"--%%%%%-%%%%+-%%%%%%-%%%q4%%%-%%+-%%%%+%%%%%%+%%-%%%%%%%%%+%%+%%",
"%%%%u%%%%%%%%%%+%%%%%%%%-%%%%+%%%%%+ %%%%%%%%+%%%%%%%-,--%%%-%%-",
"%%%%-%%%%+%%%%%%%%--%%%%-%+%%+-%%%+%%%%%%-%%%%%-%%%%%%-%%+%%%%%%",
"%--%%+%%-%%-%%%%%%--%-%%%%%%%%%%--%%%%%%---%+%%%%%%%---%%%%%+%%%",
"+%%-+%%%---%%%%%%%%%%%%%%%%%%-+%--%-%%+%%---%%%%--%%+%%%%-%++%%+",
"-%-%%%%%+%-%%%%%%%%i%%%%%-%%%-%-%-%%%%%%%u%-%%%%-%%%+%%%%--%%%+%",
"%+%%-%-%+%----%+%%%%%%%-%%%+%%+%%%%+++%%+%%%%%%--%+%%%%%%-%+%%%%",
"%++%%--+%++%%%++%-%%-%%%%%%%-%-%%%%+%%%-%%%%%%%%%%%%-%%%%-i%%-%+",
"%+%-%+--%+48%-%%%%%%%%-%%%%---%+%,e+%+%+%%-%%%+%%%%%%----%%%%%%%",
"-%%%%-e%%-+%%%%+%---%%%-%-%+%-%o%%%++%%%-+-%+%-%%--%%+%%%++-%%-%",
"%%%%%%-%%%%%%%+%------%%-,%%++%%--++--%%++%-%+%%%+u-%%++%+%-%%+%",
"%%%-%o+++%%%u%%%%%-%%++-%y8---%%%+%-%%-----%%%%++%.%-%+%%-%%-%%%",
"--+--+%%%%%%%%%%%%%%%+%%%-%-%%%%--%+%-%+%%%%%%%%+%%%%%%%%%---%%%",
"o-%%%%%%--%%%%%%%i---%---++-%-+%-%%--%-%%%--%%%%%%%%%--%%%%+-+%+",
"%%-%%-%%-----+%%%%%%---%--i%+-%+-%%-%%+%%i%-%%-%%%%%%-%%%,%%-%%%",
"%%+%-%%%%+++++%%%%%%%---%-%%+%--%+%%+%%%%%%%%++%--%%%%%-+%+%-%%-",
"%%+%%-+%--%++%%%%%%%+%%%%+%%-%%%-%%++%-%++%%%%%%++%++%%%%%%%%%%+",
"%%%--+---%%%-%%%%---%+%+-%%%%%%++%-e+%-%--%+%%%%%%%%%%-%+%%%+%-%",
"%%%%-%%%%+%%%+%-%%%--%%+%-%%++-+%%%%%%+%++%%%--%+e+%+%-%-%-++%-+",
"%%%%%%%,-+%%%%--%%%%%%-%--%+%%%+%--%++%%%%%%%%%%%-%%%%%%%%%%%%%%",
"%%%-%%%%%%-%%%%%%%%%+%%%%-%%%%+%%%%-+%%%%%%%%+%%%-%%%++%%%%+%%+%",
"%%%%%%-%-%+%-%%%%%%%%%%-%-%e%+%-+-%-%%%%%%%%%%%%%%-%%%%--%-%-%%%",
"%+%%%-%-i%%%%%%%%%%u%%%-%%%%+%%%+%+%++%%-i%%+%--%%%-%%%--%--,%%%",
"-%+%%%%--%%%%%%%%%%%%%%+%%%%%+-%%%+-%%%%%%%%%-%%-%+%--%-%+%-%+%%",
"--%+-%%%%%%-%%%%%%%%%%+%%%%--%%%%%+%%%-%-%--%-%%%%%%%%%%%e-%%%%%",
"-%%%-%%%--%-%%%%%%%%+%%%u%%%%%-%+-%%--%%%%-%%%%%%%%%%%%%%+%%%+%%",
"--%%%%%%---%%%%%%%%%%%%+%-%%%%-%--%%-%%%+%%%%%--%%%%%%%%%+%%%+%%",
"%-%%%%%%%-%-%+%%%%%%%%%%--%+%%-%-%%+%%+%%--%%%--%u%%%%-%++%%%%%%",
"%%%%%%+%%%+%%%%%i%%%%%--%%%%%%%-%-%%-%%%%%--%%%%%%%%%%%++%%%%%%%",
"%%-+%%%%%+%%%%%%%%%%%%%%%%%--%%-+%%%u%%%+++%%%%%%%%%+%%++%%%%%%%",
"%%%%%%%%%%%%%%%%-%%%i%%%%%%--%%-%+%%i%%%+++%%%-%-%%%%4-%%-%+%%--",
"%-%%-%%%%%%%%-%%--%%+%%%%-%%---+%+%%%%-%%-%--%%%%--%%,%%-%%%+%--",
"%%-%-%%%+%-%%-%+%%--%%%%-%%%-%-++%%%+%%%%----%+%%%--%%---%%%%%-%",
"--%%%--%%--%%%%%%%%%%-%%-%-%+%-%%-%-%+%%%%%e%%+%---%%--%%%%-%%%%",
"e-%%%e%%%-%%--%%%%-%%-%%-%-%+,%%---+%+%%++%%%%%%%%%%%%%%%%%-%%-%",
"%-%%%%-%%%%%%%%%%%++%%%%%%%++-+%%-%+%--%+%%-%+%+%%+++%i--%%%-%%%",
"-%+-+%%%%%%%+%-%%%%%%%%%+%%-%%-%%%%--%%%%%%%%%%%%%%%%%-%%%%%%%%%",
"%%%-%%%+%%--%------%%%%%%-%-+--%+%%%%%%%%%%%%%%%%%%%%%%%+--%%-+%",
"%%%%%-%+%%%%%%-%%%%%--%%%4,-%+%%%%-%%%%%--%%%%+%-%%%%%%%%-%%%%%%",
"+%%%%%%%%-%-%%%%%%%%%%%%%e+%%++%%%%%%%%%%%-%%%%%%%%%%%%%%%%%%%--",
"%+%++%%%%,%i%%+%%%%++%%%-%+%%%----%%+%%+%%--%%-%%+%%--%%%%%+%-%-",
"-%%%+%+%%%--%%%%%%%%%%-%%%%%-%-%%-+%%--%%%%%-%%--%%-%%--%%%-%-%%",
"%+%-%%%-%%%%-%%%%%e%%%%%-%%%u%-%-%-+%i%%%%%%%+%44%%%%%+-%%%%-%%+",
"-%--%%-,-+%%-%-%%+%%%%%%%%+-+-%%o%,+-%%%---%%%%--%-%+%%%++%%+%%%",
"-%%--+%%%%%%%%%-%%%%%-%%%%%%%%%%+%%-%%%%%-%+%%-%------%-%%-%%---"
};
